PathFileType	4	(X/Y/Z)	C:/Users/opensim2020/Desktop/walking_exp_matlab/subject03_walking08_straight_04.trc																																																																																																																																																							
DataRate	CameraRate	NumFrames	NumMarkers	Units	OrigDataRate	OrigDataStartFrame	OrigNumFrames																																																																																																																																																			
100	100	4	51	mm	100	3617	303																																																																																																																																																			
Frame#	Time	LFHD			RFHD			LBHD			RBHD			C7			T10			CLAV			STRN			RBAK			LSHO			LUPA			LELB			LFRM			LWRA			LWRB			LFIN			RSHO			RUPA			RELB			RFRM			RWRA			RWRB			RFIN			LASI			RASI			LPSI			RPSI			LTHI			LKNE			LTIB			LANK			LHEE			LTOE			RTHI			RKNE			RTIB			RANK			RHEE			RTOE			*39			*40			*41			*42			*43			*44			*45			*46			*47			*48			*49			*50		
		X1	Y1	Z1	X2	Y2	Z2	X3	Y3	Z3	X4	Y4	Z4	X5	Y5	Z5	X6	Y6	Z6	X7	Y7	Z7	X8	Y8	Z8	X9	Y9	Z9	X10	Y10	Z10	X11	Y11	Z11	X12	Y12	Z12	X13	Y13	Z13	X14	Y14	Z14	X15	Y15	Z15	X16	Y16	Z16	X17	Y17	Z17	X18	Y18	Z18	X19	Y19	Z19	X20	Y20	Z20	X21	Y21	Z21	X22	Y22	Z22	X23	Y23	Z23	X24	Y24	Z24	X25	Y25	Z25	X26	Y26	Z26	X27	Y27	Z27	X28	Y28	Z28	X29	Y29	Z29	X30	Y30	Z30	X31	Y31	Z31	X32	Y32	Z32	X33	Y33	Z33	X34	Y34	Z34	X35	Y35	Z35	X36	Y36	Z36	X37	Y37	Z37	X38	Y38	Z38	X39	Y39	Z39	X40	Y40	Z40	X41	Y41	Z41	X42	Y42	Z42	X43	Y43	Z43	X44	Y44	Z44	X45	Y45	Z45	X46	Y46	Z46	X47	Y47	Z47	X48	Y48	Z48	X49	Y49	Z49	X50	Y50	Z50	X51	Y51	Z51
																																																																																																																																																										
266	2.65	792.88287	1607.71899	-1517.99146	772.94385	1614.41638	-1386.02551	665.64514	1563.54065	-1531.39246	650.8678	1569.57886	-1401.27502	625.18097	1406.43628	-1469.8269	595.89581	1090.9342	-1465.88574	745.74597	1328.56091	-1458.74622	790.43713	1165.1438	-1453.16956	565.00824	1233.15784	-1372.94177	710.33441	1360.06238	-1619.25525	689.74933	1160.17773	-1683.17554	687.78784	1036.4054	-1692.84668	712.88611	908.50867	-1688.84875	734.11334	792.92865	-1654.04309	707.1239	794.79163	-1703.02966	724.20166	713.03412	-1690.12476	693.67688	1355.24084	-1303.13574	723.8316	1135.35388	-1230.37158	761.87915	1028.70349	-1219.0813	811.55475	901.19141	-1222.51184	864.4552	819.15564	-1263.33398	836.42181	803.75806	-1219.52466	877.39905	743.21759	-1232.94788	780.05652	931.9989	-1557.89673	746.80292	927.33539	-1321.83533	612.18713	951.58868	-1533.35034	593.74506	959.76721	-1384.11145	779.80023	635.72961	-1606.50769	828.53436	465.54651	-1564.46338	831.40259	274.39886	-1571.78967	874.85034	69.03804	-1538.73975	839.66028	33.64328	-1501.49438	1029.31677	39.48812	-1508.87415	648.49005	637.63489	-1292.38416	627.86035	458.45288	-1324.45093	505.71576	304.58118	-1328.70251	385.43665	126.59589	-1380.64209	335.20355	114.94069	-1434.01636	499.03049	36.83472	-1389.56384	704.44324	1669.80518	-1480.79297	NaN	NaN	NaN	NaN	NaN	NaN	NaN	NaN	NaN	NaN	NaN	NaN	NaN	NaN	NaN	NaN	NaN	NaN	NaN	NaN	NaN	NaN	NaN	NaN	NaN	NaN	NaN	NaN	NaN	NaN	NaN	NaN	NaN
267	2.66	801.61707	1609.42224	-1519.09375	781.15747	1616.07202	-1387.15979	674.48529	1565.26184	-1533.03088	659.10419	1571.24268	-1403.05127	633.90564	1407.79639	-1471.65967	605.08929	1092.32532	-1466.54346	754.56085	1330.32935	-1460.09814	799.57684	1167.07422	-1454.31726	573.58997	1234.47986	-1374.90466	720.00476	1361.57617	-1620.66602	701.30688	1161.54761	-1684.5188	700.26947	1037.75537	-1693.90088	725.53943	909.90326	-1689.66785	746.42712	794.30505	-1654.63635	720.12659	796.19678	-1703.98218	737.05328	714.37573	-1690.77124	701.79663	1357.00195	-1304.65332	731.01508	1136.76611	-1232.05981	768.00134	1029.69495	-1220.65601	815.40149	901.17352	-1223.27698	866.69312	817.86456	-1263.37305	838.53168	803.2854	-1219.52051	878.22406	741.8783	-1232.37427	789.1568	934.10803	-1559.02478	756.58997	928.43097	-1323.02686	621.18103	954.15503	-1533.76746	603.2572	961.16272	-1384.38245	786.90936	637.76697	-1608.1178	834.55969	467.28513	-1564.9696	834.59515	275.44232	-1572.42651	874.87677	69.00626	-1539.07239	839.65259	33.49438	-1501.7157	1029.32361	39.19101	-1508.38232	659.33356	637.95673	-1292.76416	639.67999	458.65286	-1324.13635	514.37036	307.17914	-1328.46375	390.56213	131.98634	-1380.62109	340.51447	122.29449	-1434.49963	500.06421	37.0128	-1389.71277	712.29907	1670.88501	-1481.81812	NaN	NaN	NaN	NaN	NaN	NaN	NaN	NaN	NaN	NaN	NaN	NaN	NaN	NaN	NaN	NaN	NaN	NaN	NaN	NaN	NaN	NaN	NaN	NaN	NaN	NaN	NaN	NaN	NaN	NaN	NaN	NaN	NaN
268	2.67	810.26727	1611.17847	-1520.01563	789.38354	1617.84265	-1388.38306	683.27411	1567.16321	-1534.70947	667.28009	1573.09119	-1404.7959	642.58856	1409.42969	-1473.54248	614.11688	1094.04944	-1467.08105	763.40063	1332.22937	-1461.42444	808.66266	1169.02014	-1455.46948	582.29352	1235.95911	-1376.32373	729.36823	1363.27747	-1622.01367	712.84949	1163.16785	-1685.82703	712.85541	1039.3717	-1694.94348	738.41113	911.57318	-1690.49011	758.96674	795.95477	-1655.33386	733.36841	797.89441	-1705.04578	750.02582	715.92004	-1691.60657	709.93005	1358.8905	-1306.10071	737.97681	1138.32068	-1233.74463	773.98505	1030.92932	-1222.14221	819.11151	901.4743	-1223.9624	869.21899	817.09271	-1263.1073	840.36755	803.1723	-1219.45313	878.84131	740.79242	-1231.64172	798.06549	936.31335	-1560.24341	765.98407	929.63959	-1324.33948	630.05798	956.77679	-1533.78674	612.79004	962.66125	-1384.50439	793.97412	639.77234	-1609.61768	839.71527	468.82233	-1565.83362	837.04828	276.20847	-1573.3905	874.6745	69.25219	-1538.97107	838.85913	34.02498	-1501.93469	1029.22961	38.98636	-1508.7854	670.34088	638.30048	-1293.15137	652.53955	458.76871	-1323.44824	523.98566	309.85883	-1328.46313	396.47424	137.7764	-1380.86279	347.02625	130.05211	-1435.36597	501.18585	37.22271	-1389.96045	721.44519	1673.30847	-1483.60815	NaN	NaN	NaN	NaN	NaN	NaN	NaN	NaN	NaN	NaN	NaN	NaN	NaN	NaN	NaN	NaN	NaN	NaN	NaN	NaN	NaN	NaN	NaN	NaN	NaN	NaN	NaN	NaN	NaN	NaN	NaN	NaN	NaN
269	2.68	818.97333	1612.89246	-1521.2218	797.46771	1619.46729	-1389.52087	691.89752	1569.03442	-1536.34155	675.35938	1575.01062	-1406.58154	651.47449	1411.10083	-1475.18042	622.96655	1095.67004	-1467.73682	772.07721	1334.12134	-1462.65979	817.74829	1170.94617	-1456.62463	591.09808	1237.5437	-1377.60706	738.68738	1365.14624	-1623.26978	724.38135	1164.92004	-1687.05701	725.53607	1041.15479	-1695.93823	751.36072	913.35669	-1691.30396	771.70636	797.72736	-1656.05042	746.95276	799.78149	-1706.17017	763.28088	717.63818	-1692.5509	718.13538	1360.92383	-1307.57056	744.87445	1140.03394	-1235.3031	779.96185	1032.25366	-1223.61401	822.8678	902.09503	-1224.5741	871.7348	816.48206	-1262.70337	842.14923	803.3454	-1219.06091	879.28717	739.93835	-1230.90588	806.8335	938.51172	-1561.54407	775.13794	930.9455	-1325.75281	638.84906	959.26849	-1533.86633	622.1637	964.2998	-1384.65674	800.6347	641.4635	-1610.86121	843.82068	469.83597	-1567.20093	838.58478	276.56146	-1574.34644	874.6485	69.45306	-1539.91895	839.42041	33.37289	-1502.35681	1029.16602	38.78474	-1509.07275	681.76654	638.68164	-1293.43506	666.20612	458.905	-1322.39697	534.26801	312.70538	-1328.16711	403.51889	143.66588	-1381.28137	354.53555	138.38899	-1436.70508	501.99973	37.3472	-1390.13196	730.11584	1674.69873	-1485.20129	NaN	NaN	NaN	NaN	NaN	NaN	NaN	NaN	NaN	NaN	NaN	NaN	NaN	NaN	NaN	NaN	NaN	NaN	NaN	NaN	NaN	NaN	NaN	NaN	NaN	NaN	NaN	NaN	NaN	NaN	NaN	NaN	NaN
